<svg xmlns="http://www.w3.org/2000/svg" xmlns:xlink="http://www.w3.org/1999/xlink" viewBox="0 0 85 36" overflow="visible">
  <g>
    <path d="M 16.654 0.221 C 17.755 0.572 24.586 3.081 27.144 4.077 C 30.014 5.193 30.986 5.635 31.353 6.014 L 31.633 6.3 L 31.601 13.734 C 31.568 20.457 31.547 21.241 31.363 21.952 C 30.748 24.46 29.906 26.222 28.406 28.14 C 26.442 30.649 23.399 32.706 18.683 34.717 C 16.492 35.657 16.546 35.648 16.989 34.966 C 17.884 33.619 18.974 32.595 20.356 31.811 C 24.413 29.505 24.716 29.33 24.716 29.183 C 24.716 29.146 24.629 29.183 24.521 29.266 C 24.111 29.579 22.622 30.087 20.777 30.539 C 18.391 31.11 17.377 31.442 16.535 31.904 C 15.532 32.457 14.765 33.472 14.366 34.744 L 14.237 35.141 L 13.05 34.634 L 11.862 34.117 L 11.938 33.776 C 12.046 33.25 12.434 32.475 12.888 31.894 C 14.064 30.363 16.017 29.478 19.535 28.869 C 22.708 28.316 24.716 27.504 26.28 26.157 C 27.047 25.484 27.565 24.774 27.964 23.805 C 28.298 22.985 28.633 21.426 28.579 20.891 L 28.547 20.522 L 28.18 21.075 C 26.852 23.086 25.158 24.34 23.075 24.848 C 21.856 25.152 20.809 25.254 18.316 25.318 C 14.14 25.42 12.089 25.862 10.093 27.07 C 8.873 27.808 7.179 29.561 6.779 30.492 C 6.715 30.668 6.607 30.806 6.542 30.806 C 6.391 30.806 4.912 29.469 4.157 28.638 C 1.675 25.927 0.434 23.243 0.11 19.95 C 0.056 19.351 0.002 16.085 0.002 12.691 C 0.002 5.497 -0.106 6.106 1.232 5.46 C 2.247 4.962 4.578 4.049 8.387 2.638 C 10.093 2.011 12.175 1.236 13.006 0.922 C 14.701 0.277 15.51 0.009 15.78 0 C 15.888 0 16.276 0.101 16.654 0.221 Z M 73.495 8.845 C 73.495 11.031 73.506 12.82 73.527 12.82 C 73.549 12.82 74.315 11.99 75.233 10.967 C 76.15 9.943 76.97 9.03 77.056 8.937 C 77.207 8.771 77.359 8.762 78.902 8.781 L 80.585 8.808 L 78.546 10.837 C 77.305 12.073 76.538 12.922 76.571 12.996 C 76.603 13.069 77.488 14.121 78.546 15.329 C 79.592 16.537 80.521 17.607 80.607 17.709 C 80.758 17.893 80.736 17.893 78.988 17.875 L 77.229 17.847 L 75.384 15.781 L 73.549 13.715 L 73.517 15.809 L 73.495 17.893 L 70.797 17.893 L 70.797 4.842 L 72.146 4.861 L 73.506 4.879 Z M 84.287 5.165 C 85.085 5.654 85.247 6.705 84.6 7.323 C 84.19 7.729 83.758 7.877 83.11 7.821 C 81.352 7.674 81.017 5.58 82.668 4.99 C 83.089 4.833 83.887 4.925 84.287 5.165 Z M 39.608 10.515 L 39.608 15.68 L 45.652 15.68 L 45.652 17.893 L 36.479 17.893 L 36.479 5.35 L 39.608 5.35 Z M 53.368 8.716 C 54.48 9.03 55.332 9.758 55.818 10.782 C 56.055 11.28 56.066 11.419 56.098 14.591 L 56.131 17.893 L 53.53 17.893 L 53.53 17.294 C 53.53 16.962 53.498 16.694 53.454 16.694 C 53.422 16.694 53.131 16.906 52.807 17.165 C 52.494 17.414 51.954 17.736 51.62 17.875 C 51.069 18.096 50.864 18.124 49.915 18.124 C 48.62 18.115 48.048 17.921 47.379 17.266 C 45.997 15.929 46.645 13.66 48.598 12.959 C 49.472 12.645 50.292 12.525 51.857 12.461 L 53.476 12.405 L 53.433 11.99 C 53.368 11.197 52.926 10.782 51.954 10.598 C 50.918 10.395 49.407 10.782 48.112 11.575 L 47.594 11.898 L 47.594 9.638 L 48.059 9.399 C 48.706 9.067 49.85 8.688 50.53 8.587 C 51.307 8.467 52.71 8.532 53.368 8.716 Z M 65.757 8.753 C 67.333 9.214 68.488 10.395 68.919 11.963 C 69.157 12.82 69.07 14.388 68.747 15.219 C 68.142 16.768 66.696 17.829 64.851 18.087 C 63.577 18.262 62.466 17.958 61.462 17.146 C 61.149 16.897 60.879 16.694 60.858 16.694 C 60.836 16.694 60.815 17.69 60.815 18.917 L 60.815 21.131 L 58.171 21.131 L 58.138 14.951 L 58.117 8.762 L 60.761 8.762 L 60.761 9.306 C 60.761 9.611 60.804 9.878 60.847 9.906 C 60.901 9.934 61.106 9.804 61.311 9.629 C 61.753 9.233 62.433 8.882 63.059 8.716 C 63.75 8.522 65.045 8.55 65.757 8.753 Z M 84.611 13.328 L 84.611 17.893 L 81.912 17.893 L 81.912 8.762 L 84.611 8.762 Z M 43.645 20.061 C 45.155 20.402 46.375 21.186 46.904 22.173 C 47.767 23.796 47.368 25.954 45.976 27.061 C 44.886 27.938 43.375 28.316 41.011 28.316 L 39.608 28.316 L 39.608 32.466 L 36.587 32.466 L 36.565 26.194 L 36.533 19.922 L 39.77 19.922 C 42.317 19.922 43.148 19.95 43.645 20.061 Z M 54.124 23.197 C 55.505 23.501 56.584 24.479 56.919 25.724 C 57.059 26.24 57.091 26.969 57.091 29.413 L 57.091 32.466 L 54.501 32.466 L 54.501 31.156 L 53.951 31.618 C 52.17 33.112 49.235 33.029 48.21 31.461 C 47.789 30.824 47.681 29.791 47.961 29.072 C 48.328 28.15 49.451 27.375 50.832 27.117 C 51.156 27.061 52.127 26.987 52.98 26.96 L 54.523 26.904 L 54.48 26.453 C 54.426 25.973 54.188 25.632 53.703 25.327 C 53.454 25.161 53.249 25.134 52.364 25.134 C 51.415 25.134 51.253 25.171 50.573 25.438 C 50.174 25.595 49.602 25.881 49.31 26.056 L 48.782 26.379 L 48.782 24.091 L 49.537 23.759 C 50.972 23.114 52.742 22.892 54.124 23.197 Z M 61.473 25.18 C 62.93 29.081 63.178 29.699 63.253 29.699 C 63.307 29.699 63.491 29.293 63.664 28.795 C 64.387 26.785 65.433 23.824 65.52 23.566 L 65.617 23.289 L 67.02 23.289 C 67.786 23.289 68.423 23.317 68.423 23.344 C 68.423 23.52 66.523 27.864 65.347 30.391 C 63.34 34.689 62.973 35.242 61.797 35.768 C 61.322 35.971 61.117 36.008 60.275 35.999 C 58.753 35.99 58.818 36.036 58.818 34.929 L 58.818 33.988 L 59.671 34.016 C 60.48 34.053 60.523 34.043 60.89 33.767 C 61.095 33.61 61.397 33.241 61.548 32.946 L 61.84 32.411 L 61.095 30.751 C 60.685 29.847 60.081 28.537 59.757 27.855 C 59.196 26.692 57.739 23.418 57.739 23.326 C 57.739 23.307 58.419 23.289 59.25 23.289 L 60.771 23.289 Z" fill="rgb(255,255,255)"></path>
    <path d="M 10.516 5.457 C 9.599 6.176 9.145 7.504 9.393 8.731 C 9.717 10.419 10.991 11.636 12.404 11.636 C 13.019 11.636 13.451 11.461 13.915 11.018 C 14.358 10.585 14.574 10.142 14.692 9.395 C 15.027 7.384 13.494 5.392 11.412 5.134 C 11.034 5.088 10.947 5.115 10.516 5.457 Z M 19.916 5.152 C 18.599 5.429 17.498 6.517 17.045 7.984 C 16.559 9.579 17.207 11.074 18.599 11.572 C 19.786 11.996 21.372 11.064 22.042 9.543 C 22.365 8.823 22.387 7.403 22.096 6.646 C 21.837 5.982 21.437 5.466 21.016 5.254 C 20.649 5.06 20.455 5.042 19.916 5.152 Z M 5.239 10.188 C 4.656 10.382 4.17 10.806 3.879 11.378 C 3.685 11.775 3.652 11.959 3.706 12.66 C 3.771 13.665 4.181 14.459 4.926 15.021 C 6.868 16.479 9.242 15.316 9.048 12.992 C 8.983 12.31 8.562 11.424 8.055 10.898 C 7.354 10.207 6.145 9.893 5.239 10.188 Z M 24.74 10.17 C 24.157 10.327 23.358 11.009 22.97 11.692 C 22.646 12.254 22.614 12.374 22.614 13.186 C 22.614 13.997 22.635 14.099 22.948 14.569 C 23.833 15.897 25.722 16.008 26.973 14.8 C 27.794 13.997 28.215 12.715 27.966 11.784 C 27.632 10.502 26.175 9.773 24.74 10.17 Z M 14.606 13.075 C 13.894 13.297 13.44 13.592 12.663 14.357 C 11.401 15.612 10.289 16.543 9.339 17.152 C 7.472 18.351 6.76 19.246 6.771 20.389 C 6.782 21.496 7.624 22.612 8.843 23.119 C 9.383 23.35 9.566 23.378 10.473 23.378 C 11.422 23.368 11.573 23.341 12.599 22.981 C 14.045 22.464 15.178 22.225 16.171 22.225 C 17.174 22.225 17.941 22.391 19.408 22.935 C 20.498 23.341 20.617 23.368 21.534 23.368 C 22.754 23.368 23.412 23.147 24.124 22.492 C 24.826 21.856 25.085 21.321 25.085 20.518 C 25.085 19.319 24.437 18.498 22.506 17.263 C 21.124 16.386 20.919 16.22 19.635 14.92 C 18.124 13.398 17.423 13.02 15.977 12.946 C 15.361 12.909 15.027 12.946 14.606 13.075 Z M 51.212 13.924 C 49.626 14.2 48.957 14.929 49.539 15.741 C 49.852 16.183 50.219 16.349 50.867 16.34 C 52.237 16.331 53.37 15.436 53.446 14.32 L 53.478 13.878 L 52.561 13.859 C 52.054 13.859 51.449 13.887 51.212 13.924 Z M 62.511 10.815 C 61.961 10.963 61.238 11.562 61.011 12.061 C 60.774 12.595 60.752 13.684 60.968 14.339 C 61.173 14.929 62.036 15.704 62.651 15.851 C 64.475 16.276 65.921 15.482 66.256 13.868 C 66.547 12.522 65.814 11.221 64.551 10.834 C 64.022 10.677 63.051 10.668 62.511 10.815 Z M 39.611 24.115 L 39.611 26.218 L 40.938 26.163 C 42.859 26.098 43.669 25.785 44.143 24.946 C 44.489 24.337 44.424 23.424 44.003 22.88 C 43.517 22.252 42.999 22.105 41.154 22.059 L 39.611 22.022 Z M 52.529 28.404 C 51.18 28.552 50.403 29.013 50.403 29.677 C 50.403 30.452 51.158 30.959 52.194 30.867 C 52.863 30.812 53.295 30.627 53.802 30.194 C 54.277 29.788 54.504 29.336 54.504 28.764 L 54.504 28.312 L 53.835 28.321 C 53.457 28.331 52.874 28.367 52.529 28.404 Z" fill="rgb(0,0,0)"></path>
  </g>
</svg>
