<svg width="134" height="40" viewBox="0 0 134 40" fill="none" xmlns="http://www.w3.org/2000/svg">
<g clip-path="url(#clip0_9071_12011)">
<path d="M36.4538 9.80925L28.8066 11.2171L35.8852 15.6297C37.0028 15.4856 39.7606 14.7586 41.8509 13.0035C44.145 11.0774 45.8113 4.08828 35.9564 1.95486C41.9484 6.63766 39.2132 9.21529 36.4538 9.80925Z" fill="#43E8B3"/>
<path d="M10.9777 14.4916C1.28736 16.2705 3.25111 9.60475 5.92552 6.75186C-2.24292 11.1491 -0.140876 16.8189 3.11103 19.1116C7.41564 21.9686 15.7216 19.4175 19.7241 19.4175C11.7182 24.148 9.43334 33.7444 9.45665 38.0451C14.4824 29.5051 21.1335 25.6572 25.8542 24.9681L18.3372 35.9472L27.4275 34.129L38.3009 18.4995L27.0593 11.5394L10.9777 14.4916Z" fill="#43E8B3"/>
<path d="M9.75915 17.5865C2.44654 18.412 0.570734 12.3318 3.6675 8.97861C-0.279329 11.937 0.399724 17.0577 3.82312 18.7549C6.56184 20.1127 9.99025 19.9922 11.3621 19.7622L15.2326 19.2992L19.2232 18.838C21.8408 18.4505 23.1262 19.22 24.0079 20.1222C23.3984 14.6106 18.2257 16.2587 16.5176 16.5368C15.1564 16.7584 11.4522 17.3665 9.75915 17.5865Z" fill="url(#paint0_linear_9071_12011)"/>
<path d="M41.8487 13.0035C39.7584 14.7586 37.0007 15.4856 35.883 15.6297L32.3438 13.4234C34.1953 13.2007 38.0325 12.5264 39.2652 11.4609C40.6894 10.23 41.1814 9.30446 41.1748 7.86098C41.1682 6.4175 40.4597 5.1475 39.829 4.55881C39.1983 3.97011 37.5981 2.74643 35.9543 1.95486C45.8091 4.08828 44.1428 11.0774 41.8487 13.0035Z" fill="url(#paint1_linear_9071_12011)"/>
<path d="M27.1845 24.0864C18.9219 25.1023 12.6553 31.7345 10.6885 35.0531C13.2836 28.4648 16.6328 25.3891 20.3487 23.2499C23.4425 21.4687 28.8501 20.5734 37.535 18.7096L27.1845 33.6321L19.6318 35.2479L27.1845 24.0864Z" fill="url(#paint2_linear_9071_12011)"/>
<path d="M61.8312 31.7292C59.7797 31.7292 57.8957 31.3035 56.1791 30.4522C54.4626 29.6008 53.1019 28.4256 52.0971 26.9264C51.0923 25.4088 50.5898 23.6968 50.5898 21.7905C50.5898 19.9027 51.0923 18.2093 52.0971 16.7101C53.1019 15.1925 54.4626 14.008 56.1791 13.1566C57.8957 12.3053 59.7797 11.8796 61.8312 11.8796C63.9037 11.8796 65.7877 12.3053 67.4833 13.1566C69.1999 14.008 70.5501 15.1925 71.534 16.7101C72.5388 18.2093 73.0412 19.9027 73.0412 21.7905C73.0412 23.6968 72.5388 25.4088 71.534 26.9264C70.5501 28.4256 69.1999 29.6008 67.4833 30.4522C65.7668 31.3035 63.8827 31.7292 61.8312 31.7292ZM61.8312 28.259C63.1501 28.259 64.3119 27.9999 65.3167 27.4817C66.3215 26.945 67.1065 26.1861 67.6717 25.2052C68.2369 24.2243 68.5195 23.0861 68.5195 21.7905C68.5195 20.495 68.2369 19.366 67.6717 18.4036C67.1065 17.4227 66.3215 16.6731 65.3167 16.1549C64.3119 15.6367 63.1501 15.3776 61.8312 15.3776C60.5124 15.3776 59.3401 15.6367 58.3144 16.1549C57.3096 16.6731 56.5245 17.4227 55.9593 18.4036C55.3941 19.366 55.1115 20.495 55.1115 21.7905C55.1115 23.0861 55.3941 24.2243 55.9593 25.2052C56.5245 26.1861 57.3096 26.945 58.3144 27.4817C59.3401 27.9999 60.5124 28.259 61.8312 28.259Z" fill="white"/>
<path d="M89.4372 31.5349L84.6957 25.0109L80.3938 31.5349H75.4326L82.3407 21.7628L75.3384 12.1572H80.3938L85.1353 18.6535L89.4058 12.1572H94.3671L87.4904 21.9016L94.4927 31.5349H89.4372Z" fill="white"/>
<path d="M102.234 15.2943V20.1526H109.614V23.2341H102.234V28.3701H110.556V31.5349H97.8383V12.1295H110.556V15.2943H102.234Z" fill="white"/>
<path d="M133.297 31.5349H128.901L118.947 18.237V31.5349H114.551V12.1295H118.947L128.901 25.4551V12.1295H133.297V31.5349Z" fill="white"/>
</g>
<defs>
<linearGradient id="paint0_linear_9071_12011" x1="0.753884" y1="9.88882" x2="23.1273" y2="18.8973" gradientUnits="userSpaceOnUse">
<stop stop-color="#43E8B3"/>
<stop offset="1" stop-color="#3651F3"/>
</linearGradient>
<linearGradient id="paint1_linear_9071_12011" x1="38.3359" y1="3.0464" x2="38.3359" y2="12.5996" gradientUnits="userSpaceOnUse">
<stop stop-color="#43E8B3"/>
<stop offset="1" stop-color="#3651F3"/>
</linearGradient>
<linearGradient id="paint2_linear_9071_12011" x1="24.1117" y1="18.7096" x2="24.1117" y2="35.2479" gradientUnits="userSpaceOnUse">
<stop stop-color="#3651F3"/>
<stop offset="1" stop-color="#43E8B3" stop-opacity="0.5"/>
</linearGradient>
<clipPath id="clip0_9071_12011">
<rect width="133.534" height="36.0904" fill="white" transform="translate(0 1.95479)"/>
</clipPath>
</defs>
</svg>
